<?xml version="1.0" encoding="UTF-8"?>
<svg width="64" height="64" viewBox="0 0 32 32" fill="none" class="" data-fg-bfg1254="5.5:5.27956:/src/app/components/Icons.tsx:434:5:20879:1321:e:svg:xtetxtetxtetetxtxtetetetxtetxtetetxte:1" data-fgid-bfg1254=":r1u9:" data-fg-callsite-d0626="" xmlns="http://www.w3.org/2000/svg"><rect x="3" y="6" width="26" height="5" rx="2.5" fill="#FFDAB9" stroke="#c87030" stroke-width="2" data-fg-bfg1256="5.5:5.27956:/src/app/components/Icons.tsx:436:7:20989:99:e:rect"></rect><rect x="3" y="11" width="26" height="17" rx="2" fill="#FFF8EB" stroke="#c87030" stroke-width="2" data-fg-bfg1258="5.5:5.27956:/src/app/components/Icons.tsx:438:7:21112:99:e:rect"></rect><line x1="16" y1="11" x2="16" y2="28" stroke="#c87030" stroke-width="1.8" stroke-linecap="round" opacity="0.5" data-fg-bfg1260="5.5:5.27956:/src/app/components/Icons.tsx:440:7:21240:111:e:line"></line><line x1="3" y1="19.5" x2="29" y2="19.5" stroke="#c87030" stroke-width="1.8" stroke-linecap="round" opacity="0.5" data-fg-bfg1261="5.5:5.27956:/src/app/components/Icons.tsx:441:7:21358:114:e:line"></line><circle cx="8" cy="14" r="1.2" fill="#c87030" opacity="0.5" data-fg-bfg1264="5.5:5.27956:/src/app/components/Icons.tsx:444:7:21518:62:e:circle"></circle><circle cx="11" cy="15.5" r="1" fill="#c87030" opacity="0.4" data-fg-bfg1265="5.5:5.27956:/src/app/components/Icons.tsx:445:7:21587:63:e:circle"></circle><circle cx="9" cy="17" r="1" fill="#c87030" opacity="0.4" data-fg-bfg1266="5.5:5.27956:/src/app/components/Icons.tsx:446:7:21657:60:e:circle"></circle><circle cx="21" cy="15.5" r="3" fill="#FFB7C5" stroke="#e05a78" stroke-width="1.2" data-fg-bfg1268="5.5:5.27956:/src/app/components/Icons.tsx:448:7:21746:84:e:circle"></circle><path d="M6 23 Q9 21 10 24 Q7 26 6 23 Z" fill="#B5EAD7" stroke="#2d8a68" stroke-width="1" data-fg-bfg1270="5.5:5.27956:/src/app/components/Icons.tsx:450:7:21859:91:e:path"></path><path d="M9 22 Q12 20 13 23 Q10 25 9 22 Z" fill="#B5EAD7" stroke="#2d8a68" stroke-width="1" data-fg-bfg1271="5.5:5.27956:/src/app/components/Icons.tsx:451:7:21957:93:e:path"></path><path d="M19 22 Q22 20 25 22 Q25 26 22 26 Q19 26 19 22 Z" fill="#FFF3B0" stroke="#c8a000" stroke-width="1.2" data-fg-bfg1273="5.5:5.27956:/src/app/components/Icons.tsx:453:7:22079:110:e:path"></path></svg>