<?xml version="1.0" encoding="UTF-8"?>
<svg width="64" height="64" viewBox="0 0 32 32" fill="none" class="" data-fg-bfg158="5.5:5.27956:/src/app/components/Icons.tsx:92:5:4366:1027:e:svg:xtetxtetxtetetetxtetetxte:1" data-fgid-bfg158=":r1mh:" data-fg-callsite-d063="" xmlns="http://www.w3.org/2000/svg"><rect x="5" y="22" width="22" height="5" rx="2.5" fill="#FFD4E0" stroke="#e05a78" stroke-width="2" data-fg-bfg160="5.5:5.27956:/src/app/components/Icons.tsx:94:7:4476:100:e:rect"></rect><path d="M8 22 C8 14 10 10 16 10 C22 10 24 14 24 22 Z" fill="white" stroke="#e05a78" stroke-width="2" stroke-linejoin="round" data-fg-bfg162="5.5:5.27956:/src/app/components/Icons.tsx:96:7:4600:126:e:path"></path><circle cx="16" cy="11" r="5" fill="white" stroke="#e05a78" stroke-width="2" data-fg-bfg164="5.5:5.27956:/src/app/components/Icons.tsx:98:7:4752:78:e:circle"></circle><circle cx="10.5" cy="13" r="3.5" fill="white" stroke="#e05a78" stroke-width="2" data-fg-bfg165="5.5:5.27956:/src/app/components/Icons.tsx:99:7:4837:82:e:circle"></circle><circle cx="21.5" cy="13" r="3.5" fill="white" stroke="#e05a78" stroke-width="2" data-fg-bfg166="5.5:5.27956:/src/app/components/Icons.tsx:100:7:4926:82:e:circle"></circle><path d="M13 18 Q16 16 19 18" stroke="#FFB7C5" stroke-width="1.5" stroke-linecap="round" fill="none" data-fg-bfg168="5.5:5.27956:/src/app/components/Icons.tsx:102:7:5034:101:e:path"></path><path d="M12 21 Q16 19 20 21" stroke="#FFB7C5" stroke-width="1.5" stroke-linecap="round" fill="none" data-fg-bfg169="5.5:5.27956:/src/app/components/Icons.tsx:103:7:5142:101:e:path"></path><path d="M16 7 L16.5 8.5 L18 8.5 L17 9.5 L17.5 11 L16 10 L14.5 11 L15 9.5 L14 8.5 L15.5 8.5 Z" fill="#FFD700" data-fg-bfg171="5.5:5.27956:/src/app/components/Icons.tsx:105:7:5270:112:e:path"></path></svg>