<?xml version="1.0" encoding="UTF-8"?>
<svg width="64" height="64" viewBox="0 0 32 32" fill="none" class="" data-fg-bfg1274="5.5:5.27956:/src/app/components/Icons.tsx:461:5:22310:1420:e:svg:xtetxtetxtetetetxtetetxtetxtetete:1" data-fgid-bfg1274=":r1uj:" data-fg-callsite-d0627="" xmlns="http://www.w3.org/2000/svg"><path d="M4 16 Q4 28 16 28 Q28 28 28 16 Z" fill="#FFF8FB" stroke="#e05a78" stroke-width="2" stroke-linejoin="round" data-fg-bfg1276="5.5:5.27956:/src/app/components/Icons.tsx:463:7:22419:116:e:path"></path><ellipse cx="16" cy="16" rx="12" ry="2.5" fill="#FFE9F0" stroke="#e05a78" stroke-width="2" data-fg-bfg1278="5.5:5.27956:/src/app/components/Icons.tsx:465:7:22559:92:e:ellipse"></ellipse><path d="M9 14 C8 10 12 8 14 12 C12 12 10 13 9 14 Z" fill="#78D5B0" stroke="#2d8a68" stroke-width="1.2" stroke-linejoin="round" data-fg-bfg1280="5.5:5.27956:/src/app/components/Icons.tsx:467:7:22675:128:e:path"></path><path d="M14 12 C15 7 20 7 20 12 C18 11 16 11 14 12 Z" fill="#B5EAD7" stroke="#2d8a68" stroke-width="1.2" stroke-linejoin="round" data-fg-bfg1281="5.5:5.27956:/src/app/components/Icons.tsx:468:7:22810:130:e:path"></path><path d="M20 12 C22 8 26 10 23 14 C22 13 21 12 20 12 Z" fill="#78D5B0" stroke="#2d8a68" stroke-width="1.2" stroke-linejoin="round" data-fg-bfg1282="5.5:5.27956:/src/app/components/Icons.tsx:469:7:22947:131:e:path"></path><circle cx="12" cy="13" r="2" fill="#FF6B6B" stroke="#cc3333" stroke-width="1.2" data-fg-bfg1284="5.5:5.27956:/src/app/components/Icons.tsx:471:7:23104:82:e:circle"></circle><circle cx="20" cy="11.5" r="1.5" fill="#FF6B6B" stroke="#cc3333" stroke-width="1" data-fg-bfg1285="5.5:5.27956:/src/app/components/Icons.tsx:472:7:23193:84:e:circle"></circle><circle cx="16" cy="13" r="1.5" fill="#FFF3B0" stroke="#c8a000" stroke-width="1" data-fg-bfg1287="5.5:5.27956:/src/app/components/Icons.tsx:474:7:23303:82:e:circle"></circle><line x1="26" y1="6" x2="24" y2="16" stroke="#9a7a8a" stroke-width="1.5" stroke-linecap="round" data-fg-bfg1289="5.5:5.27956:/src/app/components/Icons.tsx:476:7:23409:96:e:line"></line><line x1="24.5" y1="6" x2="23.5" y2="10" stroke="#9a7a8a" stroke-width="1.2" stroke-linecap="round" data-fg-bfg1290="5.5:5.27956:/src/app/components/Icons.tsx:477:7:23512:100:e:line"></line><line x1="27.5" y1="6" x2="26.5" y2="10" stroke="#9a7a8a" stroke-width="1.2" stroke-linecap="round" data-fg-bfg1291="5.5:5.27956:/src/app/components/Icons.tsx:478:7:23619:100:e:line"></line></svg>