<?xml version="1.0" encoding="UTF-8"?>
<svg width="64" height="64" viewBox="0 0 32 32" fill="none" class="" data-fg-bfg1240="5.5:5.27956:/src/app/components/Icons.tsx:411:5:19840:870:e:svg:xtetetxtetetxtetxtetetete:1" data-fgid-bfg1240=":r1q5:" data-fg-callsite-d0614="" xmlns="http://www.w3.org/2000/svg"><path d="M16 2 L17.5 13 L16 14 L14.5 13 Z" fill="#FFD700" data-fg-bfg1242="5.5:5.27956:/src/app/components/Icons.tsx:413:7:19955:60:e:path"></path><path d="M16 30 L17.5 19 L16 18 L14.5 19 Z" fill="#FFD700" data-fg-bfg1243="5.5:5.27956:/src/app/components/Icons.tsx:414:7:20022:61:e:path"></path><path d="M2 16 L13 14.5 L14 16 L13 17.5 Z" fill="#FFD700" data-fg-bfg1245="5.5:5.27956:/src/app/components/Icons.tsx:416:7:20112:60:e:path"></path><path d="M30 16 L19 14.5 L18 16 L19 17.5 Z" fill="#FFD700" data-fg-bfg1246="5.5:5.27956:/src/app/components/Icons.tsx:417:7:20179:61:e:path"></path><circle cx="16" cy="16" r="3.5" fill="#FFD700" stroke="#c8a000" stroke-width="1.5" data-fg-bfg1248="5.5:5.27956:/src/app/components/Icons.tsx:419:7:20265:84:e:circle"></circle><path d="M7 7 L12.5 13 L11.5 14 L5.5 8 Z" fill="#FFE566" opacity="0.7" data-fg-bfg1250="5.5:5.27956:/src/app/components/Icons.tsx:421:7:20378:73:e:path"></path><path d="M25 7 L19.5 13 L20.5 14 L26.5 8 Z" fill="#FFE566" opacity="0.7" data-fg-bfg1251="5.5:5.27956:/src/app/components/Icons.tsx:422:7:20458:75:e:path"></path><path d="M7 25 L12.5 19 L11.5 18 L5.5 24 Z" fill="#FFE566" opacity="0.7" data-fg-bfg1252="5.5:5.27956:/src/app/components/Icons.tsx:423:7:20540:75:e:path"></path><path d="M25 25 L19.5 19 L20.5 18 L26.5 24 Z" fill="#FFE566" opacity="0.7" data-fg-bfg1253="5.5:5.27956:/src/app/components/Icons.tsx:424:7:20622:77:e:path"></path></svg>