<?xml version="1.0" encoding="UTF-8"?>
<svg width="64" height="64" viewBox="0 0 32 32" fill="none" class="" data-fg-bfg10="5.5:5.27956:/src/app/components/Icons.tsx:11:5:223:1166:e:svg:xtetxtetetxtetxtetxtetxtetxte:1" data-fgid-bfg10=":r14p:" data-fg-callsite-d060="" xmlns="http://www.w3.org/2000/svg"><rect x="21" y="3" width="5" height="9" rx="2" fill="#FFDAB9" stroke="#c87030" stroke-width="1.5" data-fg-bfg12="5.5:5.27956:/src/app/components/Icons.tsx:13:7:333:99:e:rect"></rect><path d="M22.5 3 Q21.5 1.5 22.5 0.5" stroke="#d8d8d8" stroke-width="1.2" stroke-linecap="round" data-fg-bfg14="5.5:5.27956:/src/app/components/Icons.tsx:15:7:455:96:e:path"></path><path d="M24.5 2.5 Q23.5 1 24.5 0" stroke="#d8d8d8" stroke-width="1" stroke-linecap="round" data-fg-bfg15="5.5:5.27956:/src/app/components/Icons.tsx:16:7:558:92:e:path"></path><path d="M2 19 L16 5 L30 19 Z" fill="#FFB7C5" stroke="#e05a78" stroke-width="2" stroke-linejoin="round" data-fg-bfg17="5.5:5.27956:/src/app/components/Icons.tsx:18:7:674:104:e:path"></path><rect x="6" y="18" width="20" height="12" rx="2.5" fill="white" stroke="#e05a78" stroke-width="2" data-fg-bfg19="5.5:5.27956:/src/app/components/Icons.tsx:20:7:802:99:e:rect"></rect><path d="M13 30 L13 25 C13 22.8 14.3 21.5 16 21.5 C17.7 21.5 19 22.8 19 25 L19 30 Z" fill="#FFD4E0" stroke="#e05a78" stroke-width="1.5" data-fg-bfg111="5.5:5.27956:/src/app/components/Icons.tsx:22:7:926:137:e:path"></path><circle cx="17.8" cy="26.5" r="1" fill="#e05a78" data-fg-bfg113="5.5:5.27956:/src/app/components/Icons.tsx:24:7:1088:51:e:circle"></circle><path d="M8.5 20.5 C8.5 19.4 9.4 18.5 10.5 18.5 C11.1 18.5 11.6 18.8 12 19.2 C12.4 18.8 12.9 18.5 13.5 18.5 C14.6 18.5 15.5 19.4 15.5 20.5 C15.5 22.2 12 24.2 12 24.2 C12 24.2 8.5 22.2 8.5 20.5 Z" fill="#FF6B95" data-fg-bfg115="5.5:5.27956:/src/app/components/Icons.tsx:26:7:1165:213:e:path"></path></svg>