<?xml version="1.0" encoding="UTF-8"?>
<svg width="64" height="64" viewBox="0 0 32 32" fill="none" class="" data-fg-bfg1292="5.5:5.27956:/src/app/components/Icons.tsx:486:5:23839:1371:e:svg:xtetxtetxtetxtetxtetxtetxtetetxte:1" data-fgid-bfg1292=":r1ut:" data-fg-callsite-d0628="" xmlns="http://www.w3.org/2000/svg"><path d="M5 28 L5 20 L27 20 L27 28 Z" fill="#FFB7C5" stroke="#e05a78" stroke-width="2" stroke-linejoin="round" data-fg-bfg1294="5.5:5.27956:/src/app/components/Icons.tsx:488:7:23951:111:e:path"></path><path d="M8 20 L8 14 L24 14 L24 20 Z" fill="#FFF3B0" stroke="#c8a000" stroke-width="2" stroke-linejoin="round" data-fg-bfg1296="5.5:5.27956:/src/app/components/Icons.tsx:490:7:24088:111:e:path"></path><path d="M11 14 L11 10 L21 10 L21 14 Z" fill="#D4AAFF" stroke="#6a3db5" stroke-width="2" stroke-linejoin="round" data-fg-bfg1298="5.5:5.27956:/src/app/components/Icons.tsx:492:7:24225:113:e:path"></path><path d="M10 10 Q12 6 16 7 Q20 6 22 10" fill="white" stroke="#c8a0b0" stroke-width="1.5" stroke-linejoin="round" data-fg-bfg1300="5.5:5.27956:/src/app/components/Icons.tsx:494:7:24363:113:e:path"></path><rect x="14.5" y="4" width="3" height="6" rx="1.5" fill="#FF9BB5" stroke="#e05a78" stroke-width="1.5" data-fg-bfg1302="5.5:5.27956:/src/app/components/Icons.tsx:496:7:24500:103:e:rect"></rect><path d="M16 4 C16 4 14.5 2.5 15 1.5 C15.5 0.5 17 1 17 2 C17.5 1 18.5 0.5 18.5 2 C18.5 3.5 16 4 16 4 Z" fill="#FFD700" stroke="#c8a000" stroke-width="0.5" data-fg-bfg1304="5.5:5.27956:/src/app/components/Icons.tsx:498:7:24627:156:e:path"></path><line x1="5" y1="24" x2="27" y2="24" stroke="white" stroke-width="1.5" stroke-linecap="round" opacity="0.5" data-fg-bfg1306="5.5:5.27956:/src/app/components/Icons.tsx:500:7:24811:108:e:line"></line><line x1="8" y1="17" x2="24" y2="17" stroke="white" stroke-width="1.5" stroke-linecap="round" opacity="0.5" data-fg-bfg1307="5.5:5.27956:/src/app/components/Icons.tsx:501:7:24926:108:e:line"></line><path d="M14.5 8.5 C14.5 7.5 15.2 7 16 7 C16.8 7 17.5 7.5 17.5 8.5 C17.5 9.5 16 10.5 16 10.5 C16 10.5 14.5 9.5 14.5 8.5Z" fill="#FF6B6B" data-fg-bfg1309="5.5:5.27956:/src/app/components/Icons.tsx:503:7:25060:139:e:path"></path></svg>