<?xml version="1.0" encoding="UTF-8"?>
<svg width="64" height="64" viewBox="0 0 32 32" fill="none" class="" data-fg-bfg1134="5.5:5.27956:/src/app/components/Icons.tsx:230:5:10820:597:e:svg:xtetxtetxte:1" data-fgid-bfg1134=":r1rj:" data-fg-callsite-d0618="" xmlns="http://www.w3.org/2000/svg"><path d="M16 2 C10 2 6 7 6 12 C6 20 16 30 16 30 C16 30 26 20 26 12 C26 7 22 2 16 2 Z" fill="#FFB7C5" stroke="#e05a78" stroke-width="2" data-fg-bfg1136="5.5:5.27956:/src/app/components/Icons.tsx:232:7:10937:136:e:path"></path><circle cx="16" cy="12" r="4.5" fill="white" stroke="#e05a78" stroke-width="1.5" data-fg-bfg1138="5.5:5.27956:/src/app/components/Icons.tsx:234:7:11098:82:e:circle"></circle><path d="M14 11.5 C14 10.7 14.7 10 15.5 10 C15.9 10 16.2 10.2 16.5 10.5 C16.8 10.2 17.1 10 17.5 10 C18.3 10 19 10.7 19 11.5 C19 12.8 16.5 14.5 16.5 14.5 C16.5 14.5 14 12.8 14 11.5 Z" fill="#FF6B95" data-fg-bfg1140="5.5:5.27956:/src/app/components/Icons.tsx:236:7:11206:200:e:path"></path></svg>