<?xml version="1.0" encoding="UTF-8"?>
<svg width="64" height="64" viewBox="0 0 32 32" fill="none" class="" data-fg-bfg1196="5.5:5.27956:/src/app/components/Icons.tsx:340:5:16152:1197:e:svg:xtetetxtetetetxtetxtetetetxtete:1" data-fgid-bfg1196=":r1qf:" data-fg-callsite-d0615="" xmlns="http://www.w3.org/2000/svg"><path d="M4 28 L18 10" stroke="#6a3db5" stroke-width="3" stroke-linecap="round" data-fg-bfg1198="5.5:5.27956:/src/app/components/Icons.tsx:342:7:16263:80:e:path"></path><path d="M4 28 L14 24 L16 14 Z" fill="#D4AAFF" stroke="#6a3db5" stroke-width="2" stroke-linejoin="round" data-fg-bfg1199="5.5:5.27956:/src/app/components/Icons.tsx:343:7:16350:105:e:path"></path><path d="M18 10 L24 6" stroke="#FFD700" stroke-width="2" stroke-linecap="round" data-fg-bfg1201="5.5:5.27956:/src/app/components/Icons.tsx:345:7:16485:80:e:path"></path><path d="M18 10 L26 12" stroke="#FF6B95" stroke-width="2" stroke-linecap="round" data-fg-bfg1202="5.5:5.27956:/src/app/components/Icons.tsx:346:7:16572:81:e:path"></path><path d="M18 10 L20 4" stroke="#2a6fa8" stroke-width="2" stroke-linecap="round" data-fg-bfg1203="5.5:5.27956:/src/app/components/Icons.tsx:347:7:16660:80:e:path"></path><path d="M24 5 L24.8 7.5 L27.5 7.5 L25.3 9 L26.1 11.5 L24 10 L21.9 11.5 L22.7 9 L20.5 7.5 L23.2 7.5 Z" fill="#FFD700" stroke="#c8a000" stroke-width="0.8" data-fg-bfg1205="5.5:5.27956:/src/app/components/Icons.tsx:349:7:16765:155:e:path"></path><circle cx="27" cy="14" r="2" fill="#FF6B95" data-fg-bfg1207="5.5:5.27956:/src/app/components/Icons.tsx:351:7:16946:47:e:circle"></circle><circle cx="23" cy="17" r="1.5" fill="#B5EAD7" data-fg-bfg1208="5.5:5.27956:/src/app/components/Icons.tsx:352:7:17000:49:e:circle"></circle><circle cx="29" cy="19" r="1.2" fill="#FFD700" data-fg-bfg1209="5.5:5.27956:/src/app/components/Icons.tsx:353:7:17056:49:e:circle"></circle><path d="M21 12 Q22 14 20 16" stroke="#FFB7C5" stroke-width="1.5" stroke-linecap="round" fill="none" data-fg-bfg1211="5.5:5.27956:/src/app/components/Icons.tsx:355:7:17129:101:e:path"></path><path d="M25 15 Q27 17 25 19" stroke="#BDE0FE" stroke-width="1.5" stroke-linecap="round" fill="none" data-fg-bfg1212="5.5:5.27956:/src/app/components/Icons.tsx:356:7:17237:101:e:path"></path></svg>