<?xml version="1.0" encoding="UTF-8"?>
<svg width="64" height="64" viewBox="0 0 32 32" fill="none" class="" data-fg-bfg132="5.5:5.27956:/src/app/components/Icons.tsx:57:5:2637:1563:e:svg:xtetetxtetetxtetxtetxtetxtetxtetxtetxtetxtetetete:1" data-fgid-bfg132=":r1m1:" data-fg-callsite-d062="" xmlns="http://www.w3.org/2000/svg"><path d="M6 14 L4 5 L12 10 Z" fill="#D4AAFF" stroke="#6a3db5" stroke-width="1.8" stroke-linejoin="round" data-fg-bfg134="5.5:5.27956:/src/app/components/Icons.tsx:59:7:2747:105:e:path"></path><path d="M7 12 L5.5 7 L11 10.5 Z" fill="#F0D9FF" data-fg-bfg135="5.5:5.27956:/src/app/components/Icons.tsx:60:7:2859:51:e:path"></path><path d="M26 14 L28 5 L20 10 Z" fill="#D4AAFF" stroke="#6a3db5" stroke-width="1.8" stroke-linejoin="round" data-fg-bfg137="5.5:5.27956:/src/app/components/Icons.tsx:62:7:2934:107:e:path"></path><path d="M25 12 L26.5 7 L21 10.5 Z" fill="#F0D9FF" data-fg-bfg138="5.5:5.27956:/src/app/components/Icons.tsx:63:7:3048:53:e:path"></path><circle cx="16" cy="18" r="11" fill="#E8D5FF" stroke="#6a3db5" stroke-width="2" data-fg-bfg140="5.5:5.27956:/src/app/components/Icons.tsx:65:7:3124:81:e:circle"></circle><path d="M11 16 Q12.5 14 14 16" stroke="#3d2a36" stroke-width="2" stroke-linecap="round" fill="none" data-fg-bfg142="5.5:5.27956:/src/app/components/Icons.tsx:67:7:3235:101:e:path"></path><path d="M18 16 Q19.5 14 21 16" stroke="#3d2a36" stroke-width="2" stroke-linecap="round" fill="none" data-fg-bfg144="5.5:5.27956:/src/app/components/Icons.tsx:69:7:3360:101:e:path"></path><ellipse cx="16" cy="19.5" rx="1.5" ry="1" fill="#9b59b6" data-fg-bfg146="5.5:5.27956:/src/app/components/Icons.tsx:71:7:3485:60:e:ellipse"></ellipse><path d="M14.5 20.5 Q16 22.5 17.5 20.5" stroke="#9b59b6" stroke-width="1.5" stroke-linecap="round" fill="none" data-fg-bfg148="5.5:5.27956:/src/app/components/Icons.tsx:73:7:3568:111:e:path"></path><ellipse cx="10.5" cy="21" rx="2.5" ry="1.5" fill="#FFB7C5" opacity="0.7" data-fg-bfg150="5.5:5.27956:/src/app/components/Icons.tsx:75:7:3704:76:e:ellipse"></ellipse><ellipse cx="21.5" cy="21" rx="2.5" ry="1.5" fill="#FFB7C5" opacity="0.7" data-fg-bfg152="5.5:5.27956:/src/app/components/Icons.tsx:77:7:3805:76:e:ellipse"></ellipse><circle cx="9" cy="19.5" r="0.6" fill="#6a3db5" opacity="0.4" data-fg-bfg154="5.5:5.27956:/src/app/components/Icons.tsx:79:7:3906:64:e:circle"></circle><circle cx="7.5" cy="18.5" r="0.5" fill="#6a3db5" opacity="0.3" data-fg-bfg155="5.5:5.27956:/src/app/components/Icons.tsx:80:7:3977:66:e:circle"></circle><circle cx="23" cy="19.5" r="0.6" fill="#6a3db5" opacity="0.4" data-fg-bfg156="5.5:5.27956:/src/app/components/Icons.tsx:81:7:4050:65:e:circle"></circle><circle cx="24.5" cy="18.5" r="0.5" fill="#6a3db5" opacity="0.3" data-fg-bfg157="5.5:5.27956:/src/app/components/Icons.tsx:82:7:4122:67:e:circle"></circle></svg>